<svg width="192" height="192" xmlns="http://www.w3.org/2000/svg" xmlns:xlink="http://www.w3.org/1999/xlink" overflow="hidden"><defs><filter id="fx0" x="-10%" y="-10%" width="120%" height="120%" filterUnits="userSpaceOnUse" primitiveUnits="userSpaceOnUse"><feComponentTransfer color-interpolation-filters="sRGB"><feFuncR type="discrete" tableValues="0 0"/><feFuncG type="discrete" tableValues="0 0"/><feFuncB type="discrete" tableValues="0 0"/><feFuncA type="linear" slope="0.431373" intercept="0"/></feComponentTransfer><feGaussianBlur stdDeviation="0.751309 0.751309"/></filter><clipPath id="clip1"><rect x="0" y="1" width="114" height="43"/></clipPath></defs><g><rect x="0" y="0" width="192" height="192" fill="#FFFFFF"/><g><g><g><path d="M171.477 75.7317C171.059 74.8799 170.03 74.5284 169.178 74.9463 164.802 77.0964 154.455 76.4742 147.961 74.1453 152.96 72.7612 157.696 70.5595 161.976 67.6295 162.753 67.0843 162.941 66.0124 162.396 65.2353 161.85 64.4583 160.778 64.2704 160.001 64.8158 159.993 64.8214 159.985 64.8273 159.977 64.8331 153.954 68.8141 147.132 71.4293 139.992 72.4953 133.402 73.7062 128.31 78.9721 127.321 85.5991 127.002 88.3841 127.002 91.1963 127.321 93.9814 123.161 95.3122 119.175 97.1338 115.446 99.4075 114.855 98.3213 114.171 97.1731 113.408 95.8927 108.855 88.2803 102.621 77.8561 108.026 65.2061 111.696 56.6123 121.207 48.878 131.214 46.2998 131.994 46.3394 134.235 46.4356 137.2 46.4356 143.135 46.4356 151.904 46.0403 157.31 43.9795 158.204 43.6619 158.672 42.6793 158.354 41.7849 158.037 40.8903 157.054 40.4226 156.16 40.74 156.134 40.7491 156.109 40.7588 156.084 40.7689 149.917 43.1219 138.256 43.0772 133.371 42.938 135.02 37.9211 136.951 33.0017 139.156 28.2031 139.57 27.3487 139.213 26.3208 138.359 25.9069 137.504 25.493 136.476 25.85 136.062 26.7044 133.607 32.0562 131.473 37.55 129.672 43.1562 125.052 44.4888 120.705 46.6348 116.838 49.4933 115.181 46.7242 114.079 43.6586 113.595 40.4681 113.38 37.8264 114.662 34.4645 115.902 31.2144 116.663 29.3344 117.312 27.4106 117.844 25.4531 118.932 21.0067 117.773 17.2633 115.675 10.4656 115.193 8.91875 114.662 7.18969 114.093 5.25266 113.836 4.33897 112.887 3.80688 111.973 4.06423 111.059 4.32156 110.527 5.27086 110.785 6.18456 110.788 6.19651 110.792 6.20844 110.795 6.22031 111.369 8.17625 111.905 9.91391 112.39 11.4814 113.52 14.6025 114.317 17.8346 114.765 21.1236 110.099 20.709 105.609 19.1371 101.703 16.55 100.889 16.0612 99.8328 16.3247 99.344 17.1387 98.8552 17.9527 99.1187 19.0088 99.9327 19.4977 104.32 22.3293 109.326 24.0625 114.525 24.5508L114.525 24.5508C114.025 26.4019 113.411 28.2203 112.688 29.9958 111.312 33.6052 109.889 37.3348 110.168 40.7534 110.734 44.6261 112.079 48.3441 114.121 51.683 110.168 54.9998 107.007 59.1588 104.869 63.8552 102.747 68.6881 102.032 74.0219 102.806 79.2431 94.2637 75.2823 86.4027 69.9928 79.5156 63.5716 81.6678 57.1422 82.9155 50.445 83.223 43.6719 83.2453 43.6719 83.2677 43.6719 83.2917 43.6616 86.9839 42.0277 90.4097 39.8487 93.4547 37.1973 94.1597 36.5618 94.2161 35.475 93.5807 34.77 92.9681 34.0904 91.9305 34.0098 91.2203 34.5866 88.9352 36.6683 86.3219 38.3582 83.4859 39.5881 83.4395 39.6036 83.4052 39.6397 83.3605 39.6569 83.3974 37.2438 83.3017 34.8305 83.0734 32.4278 82.9786 31.4834 82.1359 30.7947 81.1914 30.8895 80.247 30.9844 79.5583 31.8271 79.6531 32.7716 80.4101 42.2733 79.4316 51.8334 76.7656 60.9848 68.9307 53.3718 62.2649 44.6418 56.9845 35.0781 56.5308 34.2442 55.487 33.936 54.653 34.3898 53.8191 34.8435 53.5109 35.8873 53.9647 36.7213 56.2142 40.8296 58.7289 44.7872 61.4928 48.5686 57.4778 47.8345 53.6123 46.4408 50.0528 44.4436 49.2582 43.9238 48.193 44.1466 47.6732 44.9412 47.1535 45.7357 47.3762 46.801 48.1708 47.3208 53.2394 50.6362 61.8984 52.257 64.6605 52.7091 75.6089 66.4058 89.627 77.6413 103.351 83.2272 104.541 90.4958 108.868 99.2116 110.678 102.611 105.675 106.575 101.496 111.479 98.3772 117.049 91.3578 117.346 78.3984 111.36 69.2203 105.961 70.3647 102.535 71.1384 98.9969 71.5286 95.4062 77.2775 94.3508 82.6432 91.7885 87.0781 87.9812 87.7715 87.3329 87.8081 86.2451 87.1598 85.5518 86.5115 84.8585 85.4237 84.8218 84.7303 85.4702 81.0104 88.6431 76.5551 90.8342 71.7709 91.8433 71.9155 88.1153 71.4855 84.3872 70.4956 80.79 70.2469 79.8739 69.3026 79.333 68.3866 79.5817 67.4705 79.8304 66.9296 80.7747 67.1783 81.6908 67.1822 81.7051 67.1862 81.7193 67.1905 81.7336 69.7686 90.7278 67.4345 100.155 66.1919 104.11 64.2088 102.891 62.3061 101.546 60.4959 100.083 53.9269 94.5022 50.3192 87.3247 46.8302 80.3844 43.2311 73.2223 39.5083 65.8163 32.5869 60.3403 31.8533 59.7379 30.7702 59.8443 30.1678 60.5778 29.5654 61.3114 29.6718 62.3946 30.4054 62.997 30.4214 63.01 30.4376 63.0228 30.4539 63.0353 34.9617 66.8468 38.6137 71.5675 41.1703 76.8884 34.5462 77.4439 27.8963 76.1805 21.9375 73.2344 21.0854 72.816 20.0555 73.1677 19.6372 74.0198 19.2338 74.8417 19.5454 75.8357 20.3459 76.28 23.8059 78.0008 27.4982 79.2081 31.3064 79.8636 28.9929 81.9948 26.1976 83.5342 23.1595 84.3495 22.2255 84.5187 21.6054 85.4129 21.7745 86.3471 21.9227 87.1654 22.6355 87.7602 23.4672 87.7595 23.5715 87.7597 23.6756 87.7504 23.7783 87.732 29.0463 86.7695 34.1028 82.1048 35.7734 80.4342 36.6087 80.4944 37.4286 80.5322 38.2141 80.5322 39.0958 80.5342 39.9772 80.4889 40.8541 80.3964L43.7553 81.9433C45.7609 86.1451 48.0522 90.2046 50.6131 94.0931L50.5994 94.0931C50.5461 94.1361 44.6869 98.6478 38.6575 97.4567 37.7237 97.286 36.8284 97.9048 36.6577 98.8386 36.4905 99.7538 37.0821 100.636 37.9923 100.829 38.9418 101.016 39.907 101.11 40.8747 101.109 45.1368 100.883 49.2364 99.3996 52.6567 96.8466 54.3294 98.9811 56.2085 100.945 58.2667 102.711 64.3769 107.903 83.8331 121.291 95.115 123.508 93.196 127.931 91.7428 132.542 90.7786 137.266 90.7478 137.471 90.7289 137.678 90.7219 137.885 62.7991 138.349 47.3561 143.878 42.5797 148.655 41.9063 149.328 41.9058 150.419 42.5788 151.093 43.2519 151.766 44.3435 151.767 45.0169 151.094 49.8998 146.211 67.0959 141.285 94.5048 141.285 121.914 141.285 139.11 146.202 143.993 151.094 144.676 151.753 145.764 151.734 146.423 151.051 147.066 150.385 147.066 149.329 146.423 148.663 142.025 144.265 128.593 139.221 104.688 138.086 104.615 128.795 105.598 117.435 112.753 108.642 115.362 109.992 118.135 110.999 121.003 111.636 121.517 116.665 123.778 121.355 127.391 124.89 128.094 125.529 129.181 125.477 129.82 124.775 130.459 124.072 130.407 122.985 129.705 122.346 126.993 119.633 125.191 116.144 124.549 112.362 128.178 112.969 131.853 113.272 135.533 113.267 136.482 113.267 137.252 112.498 137.252 111.549 137.252 110.599 136.482 109.83 135.533 109.83 127.627 109.83 119.893 108.342 115.156 106.013L115.156 105.994C123.461 97.9448 136.965 94.375 155.312 95.4062L155.79 95.4337C156.74 95.4893 157.554 94.7648 157.61 93.8156 157.665 92.8663 156.941 92.0518 155.991 91.9962L155.512 91.9688C146.03 91.4273 138.333 91.2812 130.683 93.067 130.45 90.7594 130.461 88.4338 130.715 86.1284 131.479 80.9529 135.447 76.8345 140.59 75.8778 141.327 75.7489 142.044 75.5942 142.762 75.4447 146.762 77.9988 154.398 79.7416 161.153 79.7416 164.42 79.867 167.675 79.2806 170.694 78.0228 171.54 77.604 171.89 76.5811 171.477 75.7317ZM101.249 137.95C99.0716 137.885 96.8441 137.839 94.5048 137.839L94.1748 137.839C95.0737 133.322 98.2827 120.562 107.194 110.547 107.258 110.475 107.27 110.485 107.222 110.566 101.933 119.553 101.198 130.029 101.249 137.95Z" stroke="#000000" stroke-width="2.29167" fill="#70AD47"/></g></g></g><g clip-path="url(#clip1)" filter="url(#fx0)" transform="translate(39 144)"><g><path d="M104.878 17.3184C101.239 18.9841 98.6459 20.3978 97.0992 21.5596 95.5525 22.7214 94.7791 23.9182 94.7791 25.15 94.7791 25.5979 94.8561 25.9653 95.0101 26.2523 95.164 26.5392 95.374 26.6827 95.64 26.6827 95.7939 26.6827 96.0669 26.5847 96.4588 26.3887 97.9285 25.5209 99.2723 24.3906 100.49 22.9979 101.708 21.6051 103.171 19.712 104.878 17.3184ZM73.3509 16.9195C73.0989 16.9195 72.6895 17.0805 72.1226 17.4024 71.5557 17.7243 70.9818 18.1443 70.4009 18.6622 69.8201 19.1801 69.2986 19.789 68.8367 20.4888 68.3748 21.1887 68.0739 21.9516 67.9339 22.7774 69.1937 22.2875 70.2715 21.6786 71.1673 20.9507 72.0631 20.2229 72.7245 19.5265 73.1514 18.8616 73.5784 18.1968 73.7918 17.7104 73.7918 17.4024 73.7918 17.0805 73.6448 16.9195 73.3509 16.9195ZM47.6707 14.295C48.0066 14.295 48.2341 14.4 48.3531 14.6099 48.4721 14.8199 48.5316 15.2468 48.5316 15.8907 48.5316 16.1846 48.5036 16.4226 48.4476 16.6046 48.3916 16.7865 48.2761 17.021 48.1011 17.3079 47.9262 17.5949 47.5727 18.1233 47.0408 18.8931 46.5089 19.663 45.879 20.5728 45.1512 21.6226 44.7593 22.1825 44.4163 22.7949 44.1224 23.4598 43.8284 24.1247 43.6815 24.6251 43.6815 24.961 43.6815 25.6889 43.9684 26.0528 44.5423 26.0528 45.0182 26.0528 45.5711 25.8568 46.201 25.4649 46.5159 25.2689 46.9149 24.9942 47.3978 24.6408L48.2063 24.0244 48.48 22.515C48.725 21.9621 49.1484 21.2447 49.7503 20.3629 50.6041 19.1731 51.423 18.1653 52.2068 17.3394 52.9907 16.5136 53.6836 15.8732 54.2855 15.4183 54.8873 14.9634 55.3073 14.7359 55.5452 14.7359 55.9232 14.7359 56.2906 14.9319 56.6475 15.3238 57.0045 15.7157 57.1829 16.1216 57.1829 16.5416 57.1829 16.8075 56.9905 17.2344 56.6055 17.8223 56.2206 18.4102 55.6117 19.1556 54.7789 20.0584 53.946 20.9612 52.7877 22.0425 51.304 23.3023L50.9051 24.4571C50.7931 24.6811 50.7371 24.877 50.7371 25.045 50.7371 25.4229 50.9261 25.6119 51.304 25.6119 51.6959 25.6119 52.6163 25.115 54.065 24.1212 55.5137 23.1273 57.0849 21.7906 58.7786 20.1109 59.4365 19.453 59.9824 18.8721 60.4163 18.3682 60.8502 17.8643 61.2422 17.3919 61.5921 16.951 61.942 16.5101 62.2325 16.1776 62.4634 15.9537 62.6944 15.7297 62.9009 15.6107 63.0828 15.5967 63.4328 15.5547 63.7057 15.7017 63.9017 16.0377 64.0976 16.3736 64.1956 16.8705 64.1956 17.5284 64.1956 17.9063 64.0276 18.3787 63.6917 18.9456 63.3558 19.5125 62.7259 20.4783 61.8021 21.8431 60.8782 23.2078 59.9579 24.6216 59.0411 26.0843 58.1242 27.547 57.1899 29.1952 56.2381 31.0289 56.2801 30.9869 56.7105 30.567 57.5294 29.7691 58.3482 28.9713 59.2125 28.1384 60.1224 27.2706 61.0322 26.4027 61.7811 25.7064 62.369 25.1815L64.3998 23.4891 64.4538 23.0477C64.6253 22.3811 64.8825 21.7486 65.2254 21.1502 65.9113 19.9534 67.0311 18.6902 68.5848 17.3604 69.6486 16.4506 70.7054 15.7647 71.7552 15.3028 72.805 14.8409 73.7428 14.6099 74.5687 14.6099 75.2265 14.6099 75.7479 14.7604 76.1329 15.0613 76.5178 15.3623 76.7103 15.8137 76.7103 16.4156 76.7103 17.2974 76.3813 18.1758 75.7234 19.0506 75.0656 19.9254 74.0613 20.7933 72.7105 21.6541 71.3598 22.515 69.6976 23.3443 67.7239 24.1422L67.7239 24.6671C67.7239 25.4929 67.9269 26.1368 68.3328 26.5987 68.7388 27.0606 69.2706 27.2916 69.9285 27.2916 70.6144 27.2916 71.3248 27.1306 72.0596 26.8087 72.7945 26.4867 73.5259 26.0598 74.2537 25.5279 74.9816 24.996 75.8704 24.2821 76.9202 23.3863L76.9202 24.6671C75.3385 26.5707 73.8548 28.0299 72.4691 29.0447 71.0833 30.0595 69.6766 30.567 68.2488 30.567 67.0031 30.567 66.0163 30.084 65.2884 29.1182 64.9245 28.6353 64.6515 28.0632 64.4695 27.4018L64.1993 25.172 59.44 30.525C57.9073 32.3446 56.7245 33.8004 55.8917 34.8922 55.0588 35.9839 54.5724 36.6208 54.4324 36.8028 54.0545 37.2927 53.7151 37.7511 53.4141 38.178 53.1132 38.605 52.8612 38.9339 52.6583 39.1649 52.4553 39.3958 52.2908 39.5113 52.1649 39.5113 51.8709 39.5113 51.6085 39.2208 51.3775 38.64 51.1465 38.0591 51.0311 37.5447 51.0311 37.0967 51.0311 36.6908 51.1081 36.3339 51.262 36.0259 52.2698 33.7584 54.5304 29.8181 58.0438 24.2051L54.3065 27.3755C52.5288 28.9293 51.339 29.7061 50.7371 29.7061 50.1912 29.7061 49.6173 29.0797 49.0154 27.827 48.7145 27.2006 48.4888 26.6136 48.3383 26.0659L48.2577 25.5215 46.9621 26.7089C46.3567 27.2583 45.858 27.7045 45.4661 28.0474 44.6823 28.7333 44.0034 29.2512 43.4295 29.6011 42.8556 29.9511 42.3097 30.126 41.7918 30.126 40.616 30.126 40.0281 29.4262 40.0281 28.0264 40.0281 27.4945 40.2031 26.7772 40.553 25.8743 40.903 24.9715 41.4699 23.6662 42.2537 21.9586 40.2241 24.6461 38.6809 26.5567 37.6241 27.6905 36.5673 28.8243 35.7029 29.3912 35.0311 29.3912 34.4992 29.3912 34.0093 29.1707 33.5613 28.7298 33.1134 28.2889 32.767 27.694 32.522 26.9451 32.2771 26.1963 32.1546 25.3949 32.1546 24.5411 32.1546 23.9812 32.2071 23.4773 32.3121 23.0294 32.4171 22.5814 32.6165 22.088 32.9105 21.5491 33.2044 21.0102 33.5928 20.4258 34.0757 19.796 34.5587 19.1661 35.15 18.4522 35.8499 17.6544 36.2698 17.1645 36.6233 16.7515 36.9102 16.4156 37.1972 16.0797 37.4771 15.8522 37.7501 15.7332 38.023 15.6142 38.4674 15.5547 39.0833 15.5547 39.5312 15.5547 39.9581 15.6142 40.3641 15.7332 40.77 15.8522 40.973 15.9747 40.973 16.1006 40.973 16.3526 40.7665 16.8075 40.3536 17.4654 39.9407 18.1233 39.2758 18.9246 38.3589 19.8694 37.4421 20.8143 36.3818 21.7416 35.178 22.6514 34.9121 23.4773 34.7791 24.1072 34.7791 24.5411 34.7791 25.143 35.0101 25.4439 35.472 25.4439 35.64 25.4439 35.9199 25.3004 36.3118 25.0135 36.7038 24.7265 37.3651 24.1736 38.296 23.3548 39.2268 22.5359 40.0631 21.8116 40.805 21.1817 41.3509 20.7058 41.9843 19.9954 42.7051 19.0506 43.426 18.1058 44.0104 17.3954 44.4583 16.9195 45.4941 15.8277 46.201 15.1173 46.5789 14.7884 46.9568 14.4595 47.3208 14.295 47.6707 14.295ZM105.655 13.9171C105.949 13.9171 106.222 14.0395 106.474 14.2845 106.726 14.5294 106.925 14.8129 107.072 15.1348 107.219 15.4568 107.293 15.6947 107.293 15.8487 107.293 16.1006 107.195 16.2861 106.999 16.4051 106.803 16.5241 106.46 16.6675 105.97 16.8355 106.068 17.0595 106.194 17.3464 106.348 17.6964 106.502 18.0463 106.621 18.3297 106.705 18.5467 106.789 18.7637 106.831 18.9561 106.831 19.1241 106.831 19.46 106.491 20.0864 105.813 21.0032 105.134 21.9201 104.658 22.5954 104.385 23.0294 104.112 23.4633 103.975 23.9952 103.975 24.6251 103.975 25.6609 104.451 26.1788 105.403 26.1788 106.383 26.1788 107.916 25.2619 110.001 23.4283L110.001 24.709C106.46 28.6423 103.926 30.6089 102.401 30.6089 101.855 30.6089 101.466 30.4305 101.235 30.0735 101.004 29.7166 100.889 29.1882 100.889 28.4883 100.889 27.3825 101.288 25.7798 102.086 23.6802 100.042 25.9478 98.5234 27.561 97.5296 28.5198 96.5358 29.4787 95.7169 29.9581 95.0731 29.9581 94.7651 29.9581 94.3802 29.6921 93.9183 29.1602 93.4564 28.6283 93.0469 27.9389 92.69 27.0921L92.3764 25.5488 91.7915 26.1184C90.474 27.3834 89.4163 28.3414 88.6185 28.9922 87.5547 29.8601 86.6868 30.294 86.015 30.294 84.8672 30.294 84.2933 29.5381 84.2933 28.0264 84.2933 27.5785 84.3633 27.1376 84.5032 26.7037 84.6432 26.2698 84.8357 25.8183 85.0806 25.3494 85.3256 24.8805 85.7 24.2086 86.2039 23.3338 86.7078 22.459 87.2887 21.4686 87.9466 20.3629 87.1487 20.7688 86.1479 21.5736 84.9442 22.7774 84.1603 23.5333 83.4954 24.2506 82.9495 24.9295 82.4036 25.6084 81.8192 26.3642 81.1964 27.1971 80.5735 28.0299 80.1185 28.5898 79.8316 28.8768 79.5446 29.1637 79.2542 29.3072 78.9603 29.3072 78.5123 29.3072 78.0994 28.8383 77.7215 27.9005 77.3436 26.9626 77.1546 25.8708 77.1546 24.6251 77.1546 23.8552 77.2421 23.2533 77.4171 22.8194 77.592 22.3855 77.9385 21.7696 78.4564 20.9717 79.4222 19.488 80.255 18.3997 80.9549 17.7068 81.6548 17.014 82.3266 16.6675 82.9705 16.6675 83.4184 16.6675 83.7789 16.7445 84.0518 16.8985 84.3248 17.0525 84.4612 17.2904 84.4612 17.6124 84.4612 17.7523 84.4193 17.8993 84.3353 18.0533 84.2513 18.2073 84.1568 18.3472 84.0518 18.4732 83.9468 18.5992 83.7264 18.8441 83.3904 19.2081 81.1788 21.6576 80.0731 23.2463 80.0731 23.9742 80.0731 24.3801 80.206 24.5831 80.472 24.5831 80.64 24.5831 80.9654 24.3136 81.4483 23.7747 81.9312 23.2358 82.5541 22.5289 83.317 21.6541 84.0798 20.7793 84.9827 19.8659 86.0255 18.9141 87.0683 17.9623 88.2545 17.0455 89.5843 16.1636 90.3261 15.6457 90.942 15.3868 91.4319 15.3868 91.6559 15.3868 91.8764 15.6947 92.0933 16.3106 92.3103 16.9265 92.4188 17.5494 92.4188 18.1793 92.4188 18.4872 92.1178 18.9561 91.5159 19.586 89.0524 22.3295 87.8206 24.2401 87.8206 25.3179 87.8206 25.9198 88.0656 26.2208 88.5555 26.2208 88.9614 26.2208 89.4898 26.0073 90.1407 25.5804 90.4661 25.3669 90.8834 25.0704 91.3926 24.6907L92.199 24.0697 92.3436 22.8089C92.4695 22.368 92.7145 21.9166 93.0784 21.4547 93.4424 20.9927 94.0233 20.3839 94.8211 19.628 96.9487 17.6964 99.0133 16.2616 101.015 15.3238 103.017 14.386 104.563 13.9171 105.655 13.9171ZM27.3763 4.76276C29.3919 4.76276 30.9491 4.91673 32.0479 5.22467 33.1467 5.53261 33.6961 6.00853 33.6961 6.6524 33.6961 7.70221 33.5526 8.51406 33.2657 9.08795 32.9787 9.66184 32.6708 10.0433 32.3419 10.2322 32.0129 10.4212 31.4355 10.6767 30.6097 10.9986 29.7278 11.3065 28.9615 11.6285 28.3106 11.9644 27.6597 12.3004 27.1033 12.6223 26.6414 12.9302 26.1795 13.2382 25.8926 13.3922 25.7806 13.3922 25.6406 13.3922 25.5706 13.3362 25.5706 13.2242 25.5706 12.9862 25.8191 12.6258 26.316 12.1429 26.8129 11.66 27.4253 11.2366 28.1531 10.8726 28.923 10.4667 29.3079 10.2077 29.3079 10.0958 29.3079 9.9138 28.881 9.82281 28.0272 9.82281 25.4376 9.82281 23.0441 10.0538 20.8465 10.5157 18.6489 10.9776 16.9167 11.5865 15.65 12.3423 14.3832 13.0982 13.7498 13.8681 13.7498 14.6519 13.7498 15.1418 14.0123 15.4883 14.5372 15.6912 15.0621 15.8942 16.2204 16.2336 18.012 16.7095 19.8037 17.1854 21.4064 17.7313 22.8201 18.3472 24.8498 19.2151 26.3545 20.1179 27.3343 21.0557 28.3141 21.9936 28.804 23.0434 28.804 24.2051 28.804 25.003 28.6116 25.8043 28.2266 26.6092 27.8417 27.414 27.2783 28.1524 26.5364 28.8243 25.7946 29.4962 24.9407 30.0491 23.9749 30.483 23.1491 30.8329 22.1098 31.1618 20.857 31.4698 19.6042 31.7777 18.2465 32.0192 16.7838 32.1942 15.321 32.3691 13.9248 32.4566 12.595 32.4566 10.1455 32.4566 8.17535 32.2256 6.68463 31.7637 5.19391 31.3018 4.44854 30.6019 4.44854 29.6641 4.44854 29.2442 4.7005 28.5898 5.2044 27.701 5.70831 26.8122 6.3032 26.2138 6.98907 25.9058 7.59096 25.6679 8.17185 25.5314 8.73175 25.4964 9.29165 25.4614 9.57159 25.5279 9.57159 25.6959 9.57159 25.7379 9.5506 25.7798 9.5086 25.8218 9.46661 25.8638 9.41762 25.8988 9.36163 25.9268 9.30564 25.9548 9.24965 25.9828 9.19366 26.0108 8.91372 26.1228 8.68626 26.2103 8.51129 26.2733 8.33632 26.3362 8.19635 26.3992 8.09137 26.4622 7.98639 26.5252 7.9339 26.6127 7.9339 26.7247 7.9339 27.0186 9.38263 27.1656 12.2801 27.1656 14.7996 27.1656 16.8642 27.0746 18.4739 26.8926 20.0836 26.7107 21.5044 26.3817 22.7361 25.9058 23.9679 25.4299 25.0877 24.772 26.0955 23.9322 25.7456 23.2883 25.2207 22.7074 24.5208 22.1895 23.8209 21.6716 23.0336 21.2552 22.1588 20.9402 21.2839 20.6253 20.3706 20.3909 19.4188 20.2369 16.5913 19.817 13.9528 18.9001 11.5032 17.4864 11.2933 17.3744 11.0693 17.1365 10.8314 16.7725 10.5934 16.4086 10.4744 16.0587 10.4744 15.7227 10.4744 14.4909 10.6809 13.2557 11.0938 12.0169 11.5067 10.7781 12.0351 9.80882 12.679 9.10895 13.7148 7.94716 15.58 6.93235 18.2745 6.06451 20.969 5.19667 24.0029 4.76276 27.3763 4.76276Z" stroke="#92D050" stroke-linejoin="round" stroke-miterlimit="10" fill="#FFFFCC" fill-rule="evenodd"/></g></g><path d="M142.284 159.725C138.645 161.39 136.052 162.804 134.505 163.966 132.959 165.128 132.185 166.324 132.185 167.556 132.185 168.004 132.262 168.372 132.416 168.658 132.57 168.945 132.78 169.089 133.046 169.089 133.2 169.089 133.473 168.991 133.865 168.795 135.335 167.927 136.679 166.797 137.896 165.404 139.114 164.011 140.577 162.118 142.284 159.725ZM110.757 159.326C110.505 159.326 110.096 159.487 109.529 159.809 108.962 160.131 108.388 160.551 107.807 161.068 107.226 161.586 106.705 162.195 106.243 162.895 105.781 163.595 105.48 164.358 105.34 165.184 106.6 164.694 107.678 164.085 108.574 163.357 109.469 162.629 110.131 161.933 110.558 161.268 110.985 160.603 111.198 160.117 111.198 159.809 111.198 159.487 111.051 159.326 110.757 159.326ZM85.0769 156.701C85.4129 156.701 85.6403 156.806 85.7593 157.016 85.8783 157.226 85.9378 157.653 85.9378 158.297 85.9378 158.591 85.9098 158.829 85.8538 159.011 85.7978 159.193 85.6823 159.427 85.5074 159.714 85.3324 160.001 84.979 160.53 84.4471 161.299 83.9152 162.069 83.2853 162.979 82.5574 164.029 82.1655 164.589 81.8226 165.201 81.5286 165.866 81.2347 166.531 81.0877 167.031 81.0877 167.367 81.0877 168.095 81.3746 168.459 81.9485 168.459 82.4244 168.459 82.9773 168.263 83.6072 167.871 83.9222 167.675 84.3211 167.4 84.804 167.047L85.6125 166.431 85.8863 164.921C86.1312 164.368 86.5546 163.651 87.1565 162.769 88.0104 161.579 88.8292 160.572 89.6131 159.746 90.3969 158.92 91.0898 158.279 91.6917 157.825 92.2936 157.37 92.7135 157.142 92.9515 157.142 93.3294 157.142 93.6968 157.338 94.0538 157.73 94.4107 158.122 94.5892 158.528 94.5892 158.948 94.5892 159.214 94.3967 159.641 94.0118 160.229 93.6268 160.816 93.0179 161.562 92.1851 162.465 91.3522 163.367 90.194 164.449 88.7103 165.709L88.3113 166.863C88.1993 167.087 88.1434 167.283 88.1434 167.451 88.1434 167.829 88.3323 168.018 88.7103 168.018 89.1022 168.018 90.0225 167.521 91.4712 166.527 92.92 165.534 94.4912 164.197 96.1849 162.517 96.8427 161.859 97.3886 161.278 97.8226 160.774 98.2565 160.271 98.6484 159.798 98.9983 159.357 99.3483 158.916 99.6387 158.584 99.8697 158.36 100.101 158.136 100.307 158.017 100.489 158.003 100.839 157.961 101.112 158.108 101.308 158.444 101.504 158.78 101.602 159.277 101.602 159.935 101.602 160.313 101.434 160.785 101.098 161.352 100.762 161.919 100.132 162.885 99.2083 164.249 98.2845 165.614 97.3641 167.028 96.4473 168.491 95.5305 169.953 94.5961 171.601 93.6443 173.435 93.6863 173.393 94.1167 172.973 94.9356 172.175 95.7544 171.377 96.6188 170.545 97.5286 169.677 98.4384 168.809 99.1873 168.113 99.7752 167.588L101.806 165.895 101.86 165.454C102.031 164.787 102.289 164.155 102.632 163.556 103.318 162.36 104.437 161.096 105.991 159.767 107.055 158.857 108.112 158.171 109.161 157.709 110.211 157.247 111.149 157.016 111.975 157.016 112.633 157.016 113.154 157.167 113.539 157.468 113.924 157.769 114.117 158.22 114.117 158.822 114.117 159.704 113.788 160.582 113.13 161.457 112.472 162.332 111.467 163.2 110.117 164.06 108.766 164.921 107.104 165.751 105.13 166.548L105.13 167.073C105.13 167.899 105.333 168.543 105.739 169.005 106.145 169.467 106.677 169.698 107.335 169.698 108.021 169.698 108.731 169.537 109.466 169.215 110.201 168.893 110.932 168.466 111.66 167.934 112.388 167.402 113.277 166.688 114.326 165.793L114.326 167.073C112.745 168.977 111.261 170.436 109.875 171.451 108.49 172.466 107.083 172.973 105.655 172.973 104.409 172.973 103.422 172.49 102.695 171.524 102.331 171.042 102.058 170.469 101.876 169.808L101.605 167.578 96.8462 172.931C95.3135 174.751 94.1307 176.207 93.2979 177.298 92.465 178.39 91.9786 179.027 91.8387 179.209 91.4607 179.699 91.1213 180.157 90.8204 180.584 90.5194 181.011 90.2675 181.34 90.0645 181.571 89.8615 181.802 89.6971 181.918 89.5711 181.918 89.2771 181.918 89.0147 181.627 88.7837 181.046 88.5528 180.465 88.4373 179.951 88.4373 179.503 88.4373 179.097 88.5143 178.74 88.6683 178.432 89.6761 176.165 91.9366 172.224 95.45 166.611L91.7127 169.782C89.935 171.335 88.7452 172.112 88.1434 172.112 87.5975 172.112 87.0236 171.486 86.4217 170.233 86.1207 169.607 85.895 169.02 85.7446 168.472L85.664 167.928 84.3683 169.115C83.7629 169.665 83.2643 170.111 82.8724 170.454 82.0885 171.14 81.4096 171.657 80.8357 172.007 80.2618 172.357 79.7159 172.532 79.198 172.532 78.0223 172.532 77.4344 171.832 77.4344 170.433 77.4344 169.901 77.6093 169.183 77.9593 168.281 78.3092 167.378 78.8761 166.072 79.66 164.365 77.6303 167.052 76.0871 168.963 75.0303 170.097 73.9735 171.231 73.1092 171.797 72.4373 171.797 71.9054 171.797 71.4155 171.577 70.9676 171.136 70.5197 170.695 70.1732 170.1 69.9283 169.351 69.6833 168.603 69.5608 167.801 69.5608 166.947 69.5608 166.387 69.6133 165.884 69.7183 165.436 69.8233 164.988 70.0228 164.494 70.3167 163.955 70.6106 163.416 70.9991 162.832 71.482 162.202 71.9649 161.572 72.5563 160.858 73.2561 160.061 73.6761 159.571 74.0295 159.158 74.3165 158.822 74.6034 158.486 74.8833 158.258 75.1563 158.139 75.4292 158.02 75.8737 157.961 76.4895 157.961 76.9375 157.961 77.3644 158.02 77.7703 158.139 78.1762 158.258 78.3792 158.381 78.3792 158.507 78.3792 158.759 78.1727 159.214 77.7598 159.872 77.3469 160.53 76.682 161.331 75.7652 162.276 74.8484 163.221 73.788 164.148 72.5843 165.058 72.3183 165.884 72.1853 166.513 72.1853 166.947 72.1853 167.549 72.4163 167.85 72.8782 167.85 73.0462 167.85 73.3261 167.707 73.7181 167.42 74.11 167.133 74.7714 166.58 75.7022 165.761 76.633 164.942 77.4694 164.218 78.2112 163.588 78.7571 163.112 79.3905 162.402 80.1114 161.457 80.8322 160.512 81.4166 159.802 81.8645 159.326 82.9004 158.234 83.6072 157.524 83.9852 157.195 84.3631 156.866 84.727 156.701 85.0769 156.701ZM143.061 156.323C143.355 156.323 143.628 156.446 143.88 156.691 144.132 156.936 144.332 157.219 144.479 157.541 144.626 157.863 144.699 158.101 144.699 158.255 144.699 158.507 144.601 158.692 144.405 158.811 144.209 158.93 143.866 159.074 143.376 159.242 143.474 159.466 143.6 159.753 143.754 160.103 143.908 160.453 144.027 160.736 144.111 160.953 144.195 161.17 144.237 161.362 144.237 161.53 144.237 161.866 143.898 162.493 143.219 163.409 142.54 164.326 142.064 165.002 141.791 165.436 141.518 165.87 141.382 166.401 141.382 167.031 141.382 168.067 141.858 168.585 142.809 168.585 143.789 168.585 145.322 167.668 147.408 165.835L147.408 167.115C143.866 171.049 141.333 173.015 139.807 173.015 139.261 173.015 138.873 172.837 138.642 172.48 138.411 172.123 138.295 171.594 138.295 170.895 138.295 169.789 138.694 168.186 139.492 166.086 137.448 168.354 135.93 169.967 134.936 170.926 133.942 171.885 133.123 172.364 132.479 172.364 132.171 172.364 131.786 172.098 131.325 171.566 130.863 171.035 130.453 170.345 130.096 169.498L129.783 167.955 129.198 168.525C127.88 169.79 126.823 170.748 126.025 171.398 124.961 172.266 124.093 172.7 123.421 172.7 122.273 172.7 121.7 171.944 121.7 170.433 121.7 169.985 121.77 169.544 121.909 169.11 122.049 168.676 122.242 168.225 122.487 167.756 122.732 167.287 123.106 166.615 123.61 165.74 124.114 164.865 124.695 163.875 125.353 162.769 124.555 163.175 123.554 163.98 122.35 165.184 121.567 165.939 120.902 166.657 120.356 167.336 119.81 168.015 119.225 168.77 118.603 169.603 117.98 170.436 117.525 170.996 117.238 171.283 116.951 171.57 116.66 171.713 116.367 171.713 115.919 171.713 115.506 171.245 115.128 170.307 114.75 169.369 114.561 168.277 114.561 167.031 114.561 166.261 114.648 165.66 114.823 165.226 114.998 164.792 115.345 164.176 115.863 163.378 116.828 161.894 117.661 160.806 118.361 160.113 119.061 159.42 119.733 159.074 120.377 159.074 120.825 159.074 121.185 159.151 121.458 159.305 121.731 159.459 121.867 159.697 121.867 160.019 121.867 160.159 121.825 160.306 121.742 160.46 121.658 160.613 121.563 160.753 121.458 160.879 121.353 161.005 121.133 161.25 120.797 161.614 118.585 164.064 117.479 165.653 117.479 166.38 117.479 166.786 117.612 166.989 117.878 166.989 118.046 166.989 118.372 166.72 118.855 166.181 119.337 165.642 119.96 164.935 120.723 164.06 121.486 163.186 122.389 162.272 123.432 161.32 124.474 160.369 125.661 159.452 126.991 158.57 127.732 158.052 128.348 157.793 128.838 157.793 129.062 157.793 129.283 158.101 129.5 158.717 129.717 159.333 129.825 159.956 129.825 160.585 129.825 160.893 129.524 161.362 128.922 161.992 126.459 164.736 125.227 166.646 125.227 167.724 125.227 168.326 125.472 168.627 125.962 168.627 126.368 168.627 126.896 168.414 127.547 167.987 127.872 167.773 128.29 167.477 128.799 167.097L129.605 166.476 129.75 165.215C129.876 164.774 130.121 164.323 130.485 163.861 130.849 163.399 131.429 162.79 132.227 162.034 134.355 160.103 136.42 158.668 138.421 157.73 140.423 156.792 141.97 156.323 143.061 156.323ZM64.7825 147.169C66.7981 147.169 68.3553 147.323 69.4541 147.631 70.5529 147.939 71.1023 148.415 71.1023 149.059 71.1023 150.108 70.9589 150.92 70.6719 151.494 70.385 152.068 70.077 152.45 69.7481 152.638 69.4192 152.827 68.8418 153.083 68.0159 153.405 67.1341 153.713 66.3677 154.035 65.7168 154.371 65.066 154.707 64.5096 155.029 64.0477 155.336 63.5857 155.644 63.2988 155.798 63.1868 155.798 63.0468 155.798 62.9769 155.742 62.9769 155.63 62.9769 155.392 63.2253 155.032 63.7222 154.549 64.2191 154.066 64.8315 153.643 65.5594 153.279 66.3292 152.873 66.7142 152.614 66.7142 152.502 66.7142 152.32 66.2872 152.229 65.4334 152.229 62.8439 152.229 60.4503 152.46 58.2527 152.922 56.0551 153.384 54.323 153.993 53.0562 154.749 51.7894 155.504 51.156 156.274 51.156 157.058 51.156 157.548 51.4185 157.895 51.9434 158.097 52.4683 158.3 53.6266 158.64 55.4183 159.116 57.2099 159.592 58.8126 160.138 60.2264 160.753 62.256 161.621 63.7607 162.524 64.7405 163.462 65.7203 164.4 66.2103 165.45 66.2103 166.611 66.2103 167.409 66.0178 168.211 65.6329 169.015 65.2479 169.82 64.6845 170.559 63.9427 171.231 63.2008 171.902 62.347 172.455 61.3811 172.889 60.5553 173.239 59.516 173.568 58.2632 173.876 57.0105 174.184 55.6527 174.425 54.19 174.6 52.7273 174.775 51.331 174.863 50.0013 174.863 47.5517 174.863 45.5816 174.632 44.0909 174.17 42.6001 173.708 41.8548 173.008 41.8548 172.07 41.8548 171.65 42.1067 170.996 42.6106 170.107 43.1145 169.218 43.7094 168.62 44.3953 168.312 44.9972 168.074 45.5781 167.938 46.138 167.903 46.6979 167.868 46.9778 167.934 46.9778 168.102 46.9778 168.144 46.9568 168.186 46.9148 168.228 46.8728 168.27 46.8239 168.305 46.7679 168.333 46.7119 168.361 46.6559 168.389 46.5999 168.417 46.32 168.529 46.0925 168.617 45.9175 168.679 45.7426 168.742 45.6026 168.805 45.4976 168.868 45.3926 168.931 45.3401 169.019 45.3401 169.131 45.3401 169.425 46.7889 169.572 49.6863 169.572 52.2059 169.572 54.2705 169.481 55.8802 169.299 57.4899 169.117 58.9106 168.788 60.1424 168.312 61.3741 167.836 62.4939 167.178 63.5018 166.338 63.1518 165.695 62.6269 165.114 61.927 164.596 61.2272 164.078 60.4398 163.661 59.565 163.346 58.6901 163.032 57.7768 162.797 56.825 162.643 53.9975 162.223 51.359 161.306 48.9095 159.893 48.6995 159.781 48.4755 159.543 48.2376 159.179 47.9996 158.815 47.8807 158.465 47.8807 158.129 47.8807 156.897 48.0871 155.662 48.5 154.423 48.913 153.184 49.4414 152.215 50.0852 151.515 51.1211 150.353 52.9862 149.339 55.6807 148.471 58.3752 147.603 61.4091 147.169 64.7825 147.169Z" stroke="#92D050" stroke-linejoin="round" stroke-miterlimit="10" fill="#FFFFCC" fill-rule="evenodd"/><text fill="#000000" fill-opacity="0" font-family="Arial,Arial_MSFontService,sans-serif" font-size="34.7485" x="41.8548" y="177.574">Suyena</text></g></svg>