<svg width="1920" height="1920" xmlns="http://www.w3.org/2000/svg" xmlns:xlink="http://www.w3.org/1999/xlink" overflow="hidden"><defs><filter id="fx0" x="-10%" y="-10%" width="120%" height="120%" filterUnits="userSpaceOnUse" primitiveUnits="userSpaceOnUse"><feComponentTransfer color-interpolation-filters="sRGB"><feFuncR type="discrete" tableValues="0 0"/><feFuncG type="discrete" tableValues="0 0"/><feFuncB type="discrete" tableValues="0 0"/><feFuncA type="linear" slope="0.431373" intercept="0"/></feComponentTransfer><feGaussianBlur stdDeviation="3.22472 3.22472"/></filter></defs><g><rect x="0" y="0" width="1920" height="1920" fill="none"/><g><g><g><path d="M1719.77 761.317C1715.59 752.799 1705.3 749.284 1696.78 753.463 1653.02 774.964 1549.55 768.742 1484.61 745.453 1534.6 731.612 1581.96 709.595 1624.76 680.295 1632.53 674.843 1634.41 664.124 1628.96 656.353 1623.5 648.583 1612.78 646.704 1605.01 652.158 1604.93 652.214 1604.85 652.273 1604.77 652.331 1544.54 692.141 1476.32 718.293 1404.92 728.953 1339.02 741.062 1288.1 793.721 1278.21 859.991 1275.02 887.841 1275.02 915.963 1278.21 943.814 1236.61 957.122 1196.75 975.338 1159.46 998.075 1153.55 987.213 1146.71 975.731 1139.08 962.927 1093.55 886.803 1031.21 782.561 1085.26 656.061 1121.96 570.123 1217.07 492.78 1317.14 466.998 1324.94 467.394 1347.35 468.356 1377 468.356 1436.35 468.356 1524.04 464.403 1578.1 443.795 1587.04 440.619 1591.72 430.793 1588.54 421.849 1585.37 412.903 1575.54 408.226 1566.6 411.4 1566.34 411.491 1566.09 411.588 1565.84 411.689 1504.17 435.219 1387.56 434.772 1338.71 433.38 1355.2 383.211 1374.51 334.017 1396.56 286.031 1400.7 277.487 1397.13 267.207 1388.59 263.069 1380.04 258.93 1369.76 262.5 1365.62 271.044 1341.07 324.562 1319.73 379.5 1301.72 435.562 1255.52 448.888 1212.05 470.348 1173.38 498.933 1156.81 471.242 1145.79 440.586 1140.95 408.681 1138.8 382.264 1151.62 348.645 1164.02 316.144 1171.63 297.344 1178.12 278.106 1183.44 258.531 1194.32 214.067 1182.73 176.633 1161.75 108.656 1156.93 93.1875 1151.62 75.8969 1145.93 56.5266 1143.36 47.3897 1133.87 42.0688 1124.73 44.6423 1115.59 47.2156 1110.27 56.7086 1112.85 65.8456 1112.88 65.9651 1112.92 66.0844 1112.95 66.2031 1118.69 85.7625 1124.05 103.139 1128.9 118.814 1140.2 150.025 1148.17 182.346 1152.65 215.236 1105.99 211.09 1061.09 195.371 1022.03 169.5 1013.89 164.612 1003.33 167.247 998.44 175.387 993.552 183.527 996.187 194.088 1004.33 198.977 1048.2 227.293 1098.26 244.625 1150.25 249.508L1150.25 249.508C1145.25 268.019 1139.11 286.203 1131.88 303.958 1118.12 340.052 1103.89 377.348 1106.68 411.534 1112.34 450.261 1125.79 487.441 1146.21 520.83 1106.68 553.998 1075.07 595.588 1053.69 642.552 1032.47 690.881 1025.32 744.219 1033.06 796.431 947.637 756.823 869.027 703.928 800.156 639.716 821.678 575.422 834.155 508.45 837.23 440.719 837.453 440.719 837.677 440.719 837.917 440.616 874.839 424.277 909.097 402.487 939.547 375.973 946.597 369.618 947.161 358.75 940.807 351.7 934.681 344.904 924.305 344.098 917.203 349.866 894.352 370.683 868.219 387.582 839.859 399.881 839.395 400.036 839.052 400.397 838.605 400.569 838.974 376.438 838.017 352.305 835.734 328.278 834.786 318.834 826.359 311.947 816.914 312.895 807.47 313.844 800.583 322.271 801.531 331.716 809.101 426.733 799.316 522.334 772.656 613.848 694.307 537.718 627.649 450.418 574.845 354.781 570.308 346.442 559.87 343.36 551.531 347.898 543.191 352.435 540.109 362.873 544.647 371.213 567.142 412.296 592.289 451.872 619.928 489.686 579.778 482.345 541.123 468.408 505.528 448.436 497.582 443.238 486.93 445.466 481.732 453.412 476.535 461.357 478.762 472.01 486.708 477.208 537.394 510.362 623.984 526.57 651.605 531.091 761.089 668.058 901.27 780.413 1038.51 836.272 1050.41 908.958 1093.68 996.116 1111.78 1030.11 1061.75 1069.75 1019.96 1118.79 988.772 1174.49 918.578 1177.46 788.984 1117.6 697.203 1063.61 708.647 1029.35 716.384 993.969 720.286 958.062 777.775 947.508 831.432 921.885 875.781 883.812 882.715 877.329 883.081 866.451 876.598 859.518 870.115 852.584 859.237 852.218 852.303 858.702 815.104 890.431 770.551 912.342 722.709 922.433 724.155 885.153 719.855 847.872 709.956 811.9 707.469 802.739 698.026 797.33 688.865 799.817 679.705 802.304 674.296 811.747 676.783 820.908 676.822 821.051 676.862 821.193 676.905 821.336 702.686 911.278 679.345 1005.55 666.919 1045.1 647.088 1032.91 628.061 1019.46 609.959 1004.83 544.269 949.022 508.192 877.247 473.302 807.844 437.311 736.223 400.083 662.163 330.869 607.403 323.533 601.379 312.702 602.443 306.678 609.778 300.654 617.114 301.718 627.946 309.054 633.97 309.214 634.1 309.376 634.228 309.539 634.353 354.617 672.468 391.137 719.675 416.703 772.884 350.463 778.439 283.963 765.805 224.375 736.344 215.854 732.16 205.555 735.677 201.372 744.198 197.338 752.417 200.454 762.357 208.459 766.8 243.059 784.008 279.982 796.081 318.064 802.636 294.929 823.948 266.976 839.342 236.595 847.495 227.255 849.187 221.054 858.129 222.745 867.471 224.227 875.654 231.355 881.602 239.672 881.595 240.715 881.597 241.756 881.504 242.783 881.32 295.463 871.695 346.028 825.048 362.734 808.342 371.087 808.944 379.286 809.322 387.141 809.322 395.958 809.342 404.772 808.889 413.541 807.964L442.553 823.433C462.609 865.451 485.522 906.046 511.131 944.931L510.994 944.931C510.461 945.361 451.869 990.478 391.575 978.567 382.237 976.86 373.284 983.048 371.577 992.386 369.905 1001.54 375.821 1010.36 384.923 1012.29 394.418 1014.16 404.07 1015.1 413.747 1015.09 456.368 1012.83 497.364 997.996 531.567 972.466 548.294 993.811 567.085 1013.45 587.667 1031.11 648.769 1083.03 843.331 1216.91 956.15 1239.08 936.96 1283.31 922.428 1329.42 912.786 1376.66 912.478 1378.71 912.289 1380.78 912.219 1382.85 632.991 1387.49 478.561 1442.78 430.797 1490.55 424.063 1497.28 424.058 1508.19 430.788 1514.93 437.519 1521.66 448.435 1521.67 455.169 1514.94 503.998 1466.11 675.959 1416.85 950.048 1416.85 1224.14 1416.85 1396.1 1466.02 1444.93 1514.94 1451.76 1521.53 1462.64 1521.34 1469.23 1514.51 1475.66 1507.85 1475.66 1497.29 1469.23 1490.63 1425.25 1446.65 1290.93 1396.21 1051.88 1384.86 1051.15 1291.95 1060.98 1178.35 1132.53 1090.42 1158.62 1103.92 1186.35 1113.99 1215.03 1120.36 1220.17 1170.65 1242.78 1217.55 1278.91 1252.9 1285.94 1259.29 1296.81 1258.77 1303.2 1251.75 1309.59 1244.72 1309.07 1233.85 1302.05 1227.46 1274.93 1200.33 1256.91 1165.44 1250.49 1127.62 1286.78 1133.69 1323.53 1136.72 1360.33 1136.67 1369.82 1136.67 1377.52 1128.98 1377.52 1119.49 1377.52 1109.99 1369.82 1102.3 1360.33 1102.3 1281.27 1102.3 1203.93 1087.42 1156.56 1064.13L1156.56 1063.94C1239.61 983.448 1374.65 947.75 1558.12 958.062L1562.9 958.337C1572.4 958.893 1580.54 951.648 1581.1 942.155 1581.65 932.663 1574.41 924.518 1564.91 923.962L1560.12 923.688C1465.3 918.273 1388.33 916.812 1311.83 934.67 1309.5 911.594 1309.61 888.338 1312.15 865.284 1319.79 813.529 1359.46 772.345 1410.9 762.778 1418.27 761.489 1425.44 759.942 1432.62 758.447 1472.62 783.988 1548.98 801.416 1616.53 801.416 1649.2 802.67 1681.75 796.806 1711.94 784.228 1720.4 780.04 1723.9 769.811 1719.77 761.317ZM1017.49 1383.5C995.716 1382.85 973.441 1382.39 950.048 1382.39L946.748 1382.39C955.737 1337.22 987.827 1209.62 1076.94 1109.47 1077.58 1108.75 1077.7 1108.85 1077.22 1109.66 1024.33 1199.53 1016.98 1304.29 1017.49 1383.5Z" stroke="#00B050" stroke-width="22.9166"/></g></g></g><g filter="url(#fx0)" transform="translate(409 1475)"><g><path d="M1014.99 135.772C978.849 152.313 953.1 166.351 937.741 177.888 922.382 189.425 914.702 201.309 914.702 213.541 914.702 217.989 915.467 221.638 916.996 224.487 918.525 227.337 920.61 228.761 923.251 228.761 924.78 228.761 927.49 227.788 931.382 225.842 945.977 217.224 959.32 206 971.413 192.17 983.506 178.34 998.031 159.541 1014.99 135.772ZM699.961 131.811C697.46 131.811 693.394 133.409 687.764 136.606 682.135 139.803 676.436 143.973 670.668 149.116 664.899 154.259 659.722 160.305 655.135 167.255 650.548 174.205 647.559 181.78 646.169 189.981 658.679 185.116 669.382 179.07 678.278 171.842 687.174 164.614 693.741 157.699 697.981 151.096 702.22 144.494 704.34 139.664 704.34 136.606 704.34 133.409 702.88 131.811 699.961 131.811ZM1022.7 101.996C1025.62 101.996 1028.33 103.212 1030.83 105.644 1033.34 108.077 1035.32 110.891 1036.78 114.088 1038.24 117.285 1038.97 119.648 1038.97 121.177 1038.97 123.679 1037.99 125.521 1036.05 126.702 1034.1 127.884 1030.7 129.309 1025.83 130.977 1026.8 133.201 1028.05 136.05 1029.58 139.525 1031.11 143 1032.29 145.815 1033.13 147.969 1033.96 150.123 1034.38 152.035 1034.38 153.703 1034.38 157.039 1031.01 163.259 1024.27 172.363 1017.53 181.467 1012.8 188.174 1010.09 192.483 1007.38 196.792 1006.02 202.074 1006.02 208.329 1006.02 218.614 1010.75 223.757 1020.2 223.757 1029.93 223.757 1045.15 214.653 1065.86 196.444L1065.86 209.163C1030.7 248.221 1005.54 267.75 990.386 267.75 984.965 267.75 981.108 265.978 978.815 262.433 976.521 258.889 975.375 253.642 975.375 246.692 975.375 235.711 979.336 219.796 987.259 198.946 966.965 221.464 951.884 237.483 942.015 247.005 932.146 256.526 924.015 261.287 917.621 261.287 914.563 261.287 910.741 258.646 906.154 253.364 901.567 248.082 897.501 241.236 893.957 232.827 892.185 228.622 890.855 224.339 889.969 219.978L888.983 213.449 885.745 216.623C869.478 232.464 856.722 244.155 847.479 251.696 836.915 260.314 828.297 264.623 821.626 264.623 810.228 264.623 804.529 257.117 804.529 242.105 804.529 237.657 805.224 233.279 806.614 228.97 808.004 224.661 809.915 220.178 812.347 215.522 814.78 210.865 818.498 204.193 823.502 195.506 828.506 186.819 834.274 176.985 840.807 166.004 832.884 170.035 822.946 178.027 810.992 189.981 803.208 197.487 796.606 204.61 791.185 211.352 785.764 218.093 779.961 225.599 773.776 233.869 767.59 242.14 763.073 247.7 760.223 250.549 757.374 253.399 754.49 254.823 751.571 254.823 747.123 254.823 743.023 250.167 739.27 240.854 736.455 233.869 734.696 226.025 733.992 217.32L733.734 210.715 729.561 215.628C716.031 231.203 703.245 243.399 691.205 252.217 677.444 262.294 663.475 267.333 649.297 267.333 636.926 267.333 627.127 262.538 619.899 252.947 612.671 243.356 609.057 230.221 609.057 213.541L609.128 212.355 597.943 224.5C584.534 239.225 572.122 253.364 560.707 266.916 545.487 284.986 533.741 299.441 525.471 310.283 517.201 321.125 512.37 327.449 510.981 329.256 507.228 334.121 503.857 338.673 500.868 342.913 497.88 347.152 495.378 350.419 493.363 352.712 491.347 355.006 489.714 356.152 488.463 356.152 485.544 356.152 482.938 353.268 480.644 347.5 478.351 341.731 477.204 336.623 477.204 332.175 477.204 328.144 477.969 324.6 479.498 321.542 489.505 299.024 511.954 259.897 546.842 204.159L509.73 235.642C492.077 251.07 480.262 258.785 474.285 258.785 468.864 258.785 463.165 252.565 457.189 240.124 452.706 230.794 449.904 222.343 448.784 214.772L448.683 213.463 446.997 215.017C433.694 227.255 423.638 236.354 416.827 242.313 409.043 249.124 402.302 254.267 396.603 257.742 390.904 261.217 385.483 262.955 380.34 262.955 368.664 262.955 362.826 256.005 362.826 242.105 362.826 236.823 364.564 229.699 368.039 220.734 371.514 211.769 377.143 198.807 384.927 181.85 364.772 208.537 349.448 227.51 338.953 238.769 328.459 250.028 319.876 255.657 313.204 255.657 307.922 255.657 303.057 253.468 298.609 249.09 294.162 244.711 290.721 238.804 288.289 231.367 285.856 223.931 284.64 215.973 284.64 207.495 284.64 201.935 285.161 196.931 286.204 192.483 287.246 188.035 289.227 183.135 292.146 177.784 295.065 172.433 298.922 166.629 303.718 160.375 308.513 154.12 314.386 147.031 321.336 139.108 325.505 134.243 329.015 130.143 331.865 126.807 334.714 123.471 337.494 121.212 340.204 120.031 342.915 118.849 347.328 118.258 353.444 118.258 357.892 118.258 362.131 118.849 366.162 120.031 370.193 121.212 372.209 122.428 372.209 123.679 372.209 126.181 370.158 130.699 366.058 137.231 361.957 143.764 355.355 151.722 346.251 161.104 337.146 170.487 326.617 179.695 314.664 188.73 312.023 196.931 310.702 203.186 310.702 207.495 310.702 213.472 312.996 216.46 317.583 216.46 319.251 216.46 322.03 215.035 325.922 212.186 329.814 209.336 336.382 203.846 345.625 195.715 354.869 187.583 363.174 180.39 370.541 174.135 375.962 169.409 382.251 162.355 389.41 152.973 396.568 143.591 402.371 136.536 406.819 131.811 417.105 120.969 424.124 113.915 427.877 110.648 431.63 107.382 435.244 105.749 438.719 105.749 442.055 105.749 444.313 106.791 445.495 108.876 446.676 110.961 447.267 115.2 447.267 121.594 447.267 124.513 446.989 126.876 446.433 128.683 445.877 130.49 444.73 132.818 442.993 135.668 441.256 138.517 437.746 143.764 432.464 151.409 427.182 159.054 420.927 168.089 413.699 178.514 409.807 184.074 406.402 190.155 403.483 196.757 400.564 203.359 399.105 208.329 399.105 211.665 399.105 218.892 401.954 222.506 407.653 222.506 412.379 222.506 417.869 220.56 424.124 216.668 429.597 213.263 437.624 207.463 448.205 199.269L448.843 198.772 449.135 196.523C449.743 193.169 450.656 190.12 451.872 187.375 454.304 181.884 458.509 174.761 464.486 166.004 472.965 154.189 481.096 144.181 488.88 135.98 496.664 127.78 503.544 121.421 509.521 116.903 515.498 112.386 519.668 110.127 522.031 110.127 525.784 110.127 529.432 112.073 532.977 115.965 536.521 119.857 538.294 123.888 538.294 128.058 538.294 130.699 536.382 134.938 532.56 140.776 528.737 146.614 522.691 154.015 514.421 162.981 506.15 171.946 494.648 182.684 479.915 195.193L475.953 206.661C474.841 208.885 474.285 210.831 474.285 212.499 474.285 216.251 476.162 218.128 479.915 218.128 483.807 218.128 492.946 213.194 507.332 203.325 521.718 193.456 537.32 180.182 554.139 163.502 560.672 156.969 566.093 151.201 570.402 146.197 574.711 141.193 578.603 136.502 582.078 132.123 585.553 127.745 588.437 124.444 590.73 122.22 593.024 119.996 595.074 118.814 596.881 118.675 600.356 118.258 603.066 119.718 605.012 123.054 606.958 126.39 607.931 131.324 607.931 137.857 607.931 141.61 606.263 146.301 602.927 151.93 599.591 157.56 593.336 167.151 584.163 180.703 574.989 194.255 565.85 208.294 556.745 222.819 547.641 237.344 538.363 253.711 528.911 271.92 529.328 271.503 533.602 267.333 541.734 259.41 549.865 251.487 558.448 243.217 567.483 234.599 576.518 225.981 583.954 219.066 589.792 213.854 594.17 209.944 599.37 205.546 605.39 200.66L610.946 196.203 611.611 192.665C613.314 186.046 615.868 179.765 619.273 173.823 626.084 161.938 637.204 149.394 652.633 136.189 663.197 127.154 673.691 120.343 684.116 115.756 694.541 111.169 703.853 108.876 712.054 108.876 718.587 108.876 723.765 110.37 727.587 113.359 731.41 116.347 733.321 120.83 733.321 126.807 733.321 135.563 730.054 144.286 723.522 152.973 716.989 161.66 707.016 170.278 693.602 178.826 680.189 187.375 663.683 195.61 644.085 203.533L644.085 208.746C644.085 216.946 646.1 223.34 650.131 227.927 654.162 232.514 659.444 234.808 665.977 234.808 672.787 234.808 679.842 233.209 687.139 230.012 694.436 226.815 701.699 222.576 708.927 217.294 714.348 213.333 720.668 208.355 727.887 202.36L734.56 196.74 735.106 193.942C735.432 192.657 735.812 191.475 736.246 190.398 737.984 186.089 741.424 179.973 746.567 172.05 756.158 157.317 764.428 146.51 771.378 139.629 778.328 132.749 785 129.309 791.394 129.309 795.842 129.309 799.421 130.073 802.131 131.602 804.842 133.131 806.197 135.494 806.197 138.691 806.197 140.081 805.78 141.54 804.946 143.069 804.112 144.598 803.174 145.988 802.131 147.239 801.089 148.49 798.899 150.923 795.564 154.537 773.602 178.861 762.621 194.637 762.621 201.865 762.621 205.896 763.942 207.912 766.583 207.912 768.251 207.912 771.482 205.236 776.278 199.885 781.073 194.533 787.258 187.514 794.834 178.826 802.409 170.139 811.375 161.07 821.73 151.618 832.085 142.166 843.865 133.062 857.07 124.305 864.437 119.162 870.553 116.59 875.417 116.59 877.642 116.59 879.831 119.648 881.985 125.764 884.14 131.88 885.217 138.065 885.217 144.32 885.217 147.378 882.228 152.035 876.251 158.29 851.788 185.533 839.556 204.506 839.556 215.209 839.556 221.186 841.989 224.174 846.854 224.174 850.885 224.174 856.132 222.055 862.595 217.815 868.25 214.106 876.699 207.869 887.942 199.104L889.064 198.225 889.109 197.669C889.422 194.941 889.891 192.483 890.517 190.294 891.768 185.915 894.2 181.433 897.814 176.846 901.428 172.259 907.196 166.212 915.119 158.707 936.247 139.525 956.749 125.278 976.626 115.965 996.502 106.652 1011.86 101.996 1022.7 101.996ZM239.237 11.0913C259.253 11.0913 274.716 12.6203 285.627 15.6782 296.539 18.7362 301.994 23.4621 301.994 29.856 301.994 40.2808 300.569 48.3426 297.72 54.0415 294.871 59.7404 291.813 63.5281 288.546 65.4045 285.28 67.281 279.546 69.8177 271.345 73.0146 262.588 76.0726 254.978 79.2695 248.515 82.6055 242.052 85.9414 236.526 89.1383 231.94 92.1963 227.353 95.2542 224.503 96.7832 223.391 96.7832 222.001 96.7832 221.306 96.2272 221.306 95.1152 221.306 92.7523 223.773 89.1731 228.708 84.3777 233.642 79.5823 239.723 75.3776 246.951 71.7637 254.596 67.7328 258.419 65.1613 258.419 64.0493 258.419 62.2423 254.179 61.3389 245.7 61.3389 219.986 61.3389 196.217 63.6323 174.395 68.2192 152.572 72.8062 135.371 78.8525 122.792 86.3584 110.213 93.8643 103.923 101.509 103.923 109.293 103.923 114.158 106.529 117.598 111.742 119.614 116.954 121.629 128.456 125 146.248 129.726 164.039 134.452 179.955 139.872 193.993 145.988 214.148 154.606 229.09 163.571 238.82 172.884 248.55 182.197 253.415 192.622 253.415 204.159 253.415 212.082 251.503 220.039 247.681 228.031 243.859 236.024 238.264 243.356 230.897 250.028 223.53 256.7 215.051 262.19 205.461 266.499 197.26 269.974 186.939 273.24 174.499 276.298 162.059 279.356 148.576 281.754 134.051 283.491 119.525 285.229 105.66 286.098 92.4556 286.098 68.1311 286.098 48.5672 283.804 33.764 279.217 18.9608 274.63 11.5592 267.681 11.5592 258.368 11.5592 254.198 14.0611 247.7 19.065 238.873 24.0689 230.047 29.9763 224.105 36.7872 221.047 42.7641 218.684 48.5325 217.329 54.0924 216.981 59.6523 216.634 62.4322 217.294 62.4322 218.962 62.4322 219.379 62.2237 219.796 61.8067 220.213 61.3897 220.63 60.9032 220.977 60.3473 221.255 59.7912 221.533 59.2353 221.811 58.6793 222.089 55.8993 223.201 53.6406 224.07 51.9032 224.696 50.1657 225.321 48.7757 225.947 47.7332 226.572 46.6907 227.198 46.1695 228.066 46.1695 229.178 46.1695 232.097 60.5557 233.557 89.3282 233.557 114.348 233.557 134.85 232.653 150.835 230.846 166.819 229.039 180.927 225.773 193.159 221.047 205.391 216.321 216.511 209.788 226.519 201.448 223.044 195.054 217.831 189.286 210.881 184.143 203.932 179 196.113 174.865 187.426 171.738 178.738 168.61 169.669 166.282 160.217 164.753 132.139 160.583 105.938 151.479 81.6138 137.44 79.5289 136.328 77.3049 133.965 74.942 130.351 72.579 126.737 71.3975 123.262 71.3975 119.926 71.3975 107.694 73.4478 95.428 77.5482 83.1267 81.6486 70.8254 86.8958 61.1999 93.2896 54.25 103.575 42.7132 122.097 32.6359 148.854 24.0181 175.611 15.4002 205.739 11.0913 239.237 11.0913Z" stroke="#92D050" stroke-linejoin="round" stroke-miterlimit="10" fill="#FFFFCC" fill-rule="evenodd"/></g></g><path d="M1417.15 1603.93C1381.01 1620.47 1355.26 1634.51 1339.9 1646.05 1324.54 1657.58 1316.86 1669.47 1316.86 1681.7 1316.86 1686.15 1317.63 1689.8 1319.16 1692.65 1320.68 1695.5 1322.77 1696.92 1325.41 1696.92 1326.94 1696.92 1329.65 1695.95 1333.54 1694 1348.14 1685.38 1361.48 1674.16 1373.57 1660.33 1385.67 1646.5 1400.19 1627.7 1417.15 1603.93ZM1102.12 1599.97C1099.62 1599.97 1095.55 1601.57 1089.92 1604.77 1084.29 1607.96 1078.6 1612.13 1072.83 1617.28 1067.06 1622.42 1061.88 1628.46 1057.29 1635.41 1052.71 1642.36 1049.72 1649.94 1048.33 1658.14 1060.84 1653.28 1071.54 1647.23 1080.44 1640 1089.33 1632.77 1095.9 1625.86 1100.14 1619.26 1104.38 1612.65 1106.5 1607.82 1106.5 1604.77 1106.5 1601.57 1105.04 1599.97 1102.12 1599.97ZM1424.86 1570.16C1427.78 1570.16 1430.49 1571.37 1432.99 1573.8 1435.5 1576.24 1437.48 1579.05 1438.94 1582.25 1440.4 1585.44 1441.13 1587.81 1441.13 1589.34 1441.13 1591.84 1440.15 1593.68 1438.21 1594.86 1436.26 1596.04 1432.85 1597.47 1427.99 1599.14 1428.96 1601.36 1430.21 1604.21 1431.74 1607.68 1433.27 1611.16 1434.45 1613.97 1435.29 1616.13 1436.12 1618.28 1436.54 1620.19 1436.54 1621.86 1436.54 1625.2 1433.17 1631.42 1426.43 1640.52 1419.68 1649.63 1414.96 1656.33 1412.25 1660.64 1409.54 1664.95 1408.18 1670.23 1408.18 1676.49 1408.18 1686.77 1412.91 1691.92 1422.36 1691.92 1432.09 1691.92 1447.31 1682.81 1468.02 1664.6L1468.02 1677.32C1432.85 1716.38 1407.7 1735.91 1392.55 1735.91 1387.12 1735.91 1383.27 1734.14 1380.97 1730.59 1378.68 1727.05 1377.53 1721.8 1377.53 1714.85 1377.53 1703.87 1381.5 1687.96 1389.42 1667.11 1369.12 1689.62 1354.04 1705.64 1344.17 1715.16 1334.31 1724.69 1326.17 1729.45 1319.78 1729.45 1316.72 1729.45 1312.9 1726.81 1308.31 1721.52 1303.73 1716.24 1299.66 1709.4 1296.12 1700.99 1294.34 1696.78 1293.01 1692.5 1292.13 1688.14L1291.14 1681.61 1287.9 1684.78C1271.64 1700.62 1258.88 1712.31 1249.64 1719.86 1239.07 1728.47 1230.46 1732.78 1223.78 1732.78 1212.39 1732.78 1206.69 1725.28 1206.69 1710.26 1206.69 1705.82 1207.38 1701.44 1208.77 1697.13 1210.16 1692.82 1212.07 1688.34 1214.51 1683.68 1216.94 1679.02 1220.66 1672.35 1225.66 1663.67 1230.67 1654.98 1236.43 1645.14 1242.97 1634.16 1235.04 1638.19 1225.11 1646.19 1213.15 1658.14 1205.37 1665.65 1198.77 1672.77 1193.34 1679.51 1187.92 1686.25 1182.12 1693.76 1175.94 1702.03 1169.75 1710.3 1165.23 1715.86 1162.38 1718.71 1159.53 1721.56 1156.65 1722.98 1153.73 1722.98 1149.28 1722.98 1145.18 1718.33 1141.43 1709.01 1138.61 1702.03 1136.85 1694.18 1136.15 1685.48L1135.89 1678.87 1131.72 1683.79C1118.19 1699.36 1105.4 1711.56 1093.36 1720.38 1079.6 1730.45 1065.63 1735.49 1051.46 1735.49 1039.09 1735.49 1029.29 1730.7 1022.06 1721.11 1014.83 1711.52 1011.22 1698.38 1011.22 1681.7L1011.29 1680.51 1000.1 1692.66C986.693 1707.38 974.281 1721.52 962.866 1735.08 947.646 1753.15 935.901 1767.6 927.63 1778.44 919.36 1789.28 914.53 1795.61 913.14 1797.42 909.387 1802.28 906.016 1806.83 903.028 1811.07 900.039 1815.31 897.537 1818.58 895.522 1820.87 893.506 1823.17 891.873 1824.31 890.622 1824.31 887.703 1824.31 885.097 1821.43 882.804 1815.66 880.51 1809.89 879.364 1804.78 879.364 1800.33 879.364 1796.3 880.128 1792.76 881.657 1789.7 891.665 1767.18 914.113 1728.06 949.001 1672.32L911.889 1703.8C894.236 1719.23 882.422 1726.94 876.445 1726.94 871.024 1726.94 865.325 1720.72 859.348 1708.28 854.865 1698.95 852.064 1690.5 850.943 1682.93L850.842 1681.62 849.156 1683.18C835.854 1695.41 825.797 1704.51 818.986 1710.47 811.202 1717.28 804.461 1722.43 798.762 1725.9 793.063 1729.38 787.642 1731.11 782.499 1731.11 770.823 1731.11 764.986 1724.16 764.986 1710.26 764.986 1704.98 766.723 1697.86 770.198 1688.89 773.673 1679.93 779.302 1666.97 787.086 1650.01 766.932 1676.7 751.607 1695.67 741.113 1706.93 730.619 1718.19 722.035 1723.82 715.364 1723.82 710.082 1723.82 705.217 1721.63 700.769 1717.25 696.321 1712.87 692.881 1706.96 690.448 1699.53 688.016 1692.09 686.8 1684.13 686.8 1675.65 686.8 1670.09 687.321 1665.09 688.363 1660.64 689.406 1656.19 691.386 1651.29 694.305 1645.94 697.224 1640.59 701.082 1634.79 705.877 1628.53 710.672 1622.28 716.545 1615.19 723.495 1607.27 727.665 1602.4 731.174 1598.3 734.024 1594.97 736.873 1591.63 739.653 1589.37 742.364 1588.19 745.074 1587.01 749.487 1586.42 755.603 1586.42 760.051 1586.42 764.291 1587.01 768.322 1588.19 772.352 1589.37 774.368 1590.59 774.368 1591.84 774.368 1594.34 772.318 1598.86 768.217 1605.39 764.117 1611.92 757.515 1619.88 748.41 1629.26 739.306 1638.65 728.777 1647.85 716.823 1656.89 714.182 1665.09 712.862 1671.35 712.862 1675.65 712.862 1681.63 715.155 1684.62 719.742 1684.62 721.41 1684.62 724.19 1683.19 728.082 1680.35 731.974 1677.5 738.541 1672.01 747.785 1663.87 757.028 1655.74 765.333 1648.55 772.7 1642.29 778.121 1637.57 784.411 1630.51 791.569 1621.13 798.727 1611.75 804.53 1604.7 808.978 1599.97 819.264 1589.13 826.283 1582.07 830.036 1578.81 833.789 1575.54 837.403 1573.91 840.878 1573.91 844.214 1573.91 846.473 1574.95 847.654 1577.04 848.836 1579.12 849.427 1583.36 849.427 1589.75 849.427 1592.67 849.148 1595.04 848.593 1596.84 848.036 1598.65 846.89 1600.98 845.152 1603.83 843.415 1606.68 839.905 1611.92 834.623 1619.57 829.341 1627.21 823.086 1636.25 815.859 1646.67 811.967 1652.23 808.561 1658.31 805.642 1664.92 802.723 1671.52 801.264 1676.49 801.264 1679.82 801.264 1687.05 804.113 1690.67 809.812 1690.67 814.538 1690.67 820.029 1688.72 826.283 1684.83 831.756 1681.42 839.784 1675.62 850.365 1667.43L851.002 1666.93 851.295 1664.68C851.903 1661.33 852.815 1658.28 854.031 1655.53 856.464 1650.04 860.668 1642.92 866.645 1634.16 875.124 1622.35 883.255 1612.34 891.039 1604.14 898.823 1595.94 905.703 1589.58 911.68 1585.06 917.657 1580.55 921.827 1578.29 924.19 1578.29 927.943 1578.29 931.592 1580.23 935.136 1584.12 938.681 1588.02 940.453 1592.05 940.453 1596.22 940.453 1598.86 938.542 1603.1 934.719 1608.94 930.897 1614.77 924.85 1622.17 916.58 1631.14 908.31 1640.11 896.808 1650.84 882.074 1663.35L878.113 1674.82C877.001 1677.04 876.445 1678.99 876.445 1680.66 876.445 1684.41 878.321 1686.29 882.074 1686.29 885.966 1686.29 895.105 1681.35 909.491 1671.48 923.877 1661.62 939.48 1648.34 956.299 1631.66 962.831 1625.13 968.252 1619.36 972.561 1614.36 976.87 1609.35 980.762 1604.66 984.237 1600.28 987.712 1595.9 990.596 1592.6 992.89 1590.38 995.183 1588.16 997.233 1586.97 999.04 1586.83 1002.52 1586.42 1005.23 1587.88 1007.17 1591.21 1009.12 1594.55 1010.09 1599.48 1010.09 1606.02 1010.09 1609.77 1008.42 1614.46 1005.09 1620.09 1001.75 1625.72 995.496 1635.31 986.322 1648.86 977.148 1662.41 968.009 1676.45 958.905 1690.98 949.8 1705.5 940.522 1721.87 931.071 1740.08 931.488 1739.66 935.762 1735.49 943.893 1727.57 952.024 1719.65 960.608 1711.38 969.642 1702.76 978.677 1694.14 986.114 1687.23 991.951 1682.01 996.33 1678.1 1001.53 1673.71 1007.55 1668.82L1013.11 1664.36 1013.77 1660.82C1015.47 1654.21 1018.03 1647.92 1021.43 1641.98 1028.24 1630.1 1039.36 1617.55 1054.79 1604.35 1065.36 1595.31 1075.85 1588.5 1086.28 1583.92 1096.7 1579.33 1106.01 1577.04 1114.21 1577.04 1120.75 1577.04 1125.92 1578.53 1129.75 1581.52 1133.57 1584.51 1135.48 1588.99 1135.48 1594.97 1135.48 1603.72 1132.21 1612.44 1125.68 1621.13 1119.15 1629.82 1109.17 1638.44 1095.76 1646.99 1082.35 1655.53 1065.84 1663.77 1046.24 1671.69L1046.24 1676.91C1046.24 1685.11 1048.26 1691.5 1052.29 1696.09 1056.32 1700.67 1061.6 1702.97 1068.14 1702.97 1074.95 1702.97 1082 1701.37 1089.3 1698.17 1096.6 1694.97 1103.86 1690.74 1111.09 1685.45 1116.51 1681.49 1122.83 1676.51 1130.05 1670.52L1136.72 1664.9 1137.27 1662.1C1137.59 1660.82 1137.97 1659.63 1138.41 1658.56 1140.14 1654.25 1143.58 1648.13 1148.73 1640.21 1158.32 1625.48 1166.59 1614.67 1173.54 1607.79 1180.49 1600.91 1187.16 1597.47 1193.55 1597.47 1198 1597.47 1201.58 1598.23 1204.29 1599.76 1207 1601.29 1208.36 1603.65 1208.36 1606.85 1208.36 1608.24 1207.94 1609.7 1207.11 1611.23 1206.27 1612.76 1205.33 1614.15 1204.29 1615.4 1203.25 1616.65 1201.06 1619.08 1197.72 1622.7 1175.76 1647.02 1164.78 1662.8 1164.78 1670.02 1164.78 1674.06 1166.1 1676.07 1168.74 1676.07 1170.41 1676.07 1173.64 1673.4 1178.44 1668.04 1183.23 1662.69 1189.42 1655.67 1196.99 1646.99 1204.57 1638.3 1213.53 1629.23 1223.89 1619.78 1234.24 1610.33 1246.02 1601.22 1259.23 1592.46 1266.6 1587.32 1272.71 1584.75 1277.58 1584.75 1279.8 1584.75 1281.99 1587.81 1284.14 1593.92 1286.3 1600.04 1287.38 1606.22 1287.38 1612.48 1287.38 1615.54 1284.39 1620.19 1278.41 1626.45 1253.95 1653.69 1241.72 1672.67 1241.72 1683.37 1241.72 1689.35 1244.15 1692.33 1249.01 1692.33 1253.04 1692.33 1258.29 1690.21 1264.75 1685.97 1270.41 1682.27 1278.86 1676.03 1290.1 1667.26L1291.22 1666.38 1291.27 1665.83C1291.58 1663.1 1292.05 1660.64 1292.68 1658.45 1293.93 1654.07 1296.36 1649.59 1299.97 1645.01 1303.59 1640.42 1309.36 1634.37 1317.28 1626.87 1338.41 1607.68 1358.91 1593.44 1378.78 1584.12 1398.66 1574.81 1414.02 1570.16 1424.86 1570.16ZM641.396 1479.25C661.412 1479.25 676.875 1480.78 687.787 1483.84 698.698 1486.9 704.154 1491.62 704.154 1498.02 704.154 1508.44 702.729 1516.5 699.879 1522.2 697.03 1527.9 693.972 1531.69 690.706 1533.56 687.439 1535.44 681.705 1537.98 673.505 1541.17 664.748 1544.23 657.138 1547.43 650.674 1550.76 644.211 1554.1 638.686 1557.3 634.099 1560.36 629.512 1563.41 626.662 1564.94 625.551 1564.94 624.161 1564.94 623.466 1564.39 623.466 1563.27 623.466 1560.91 625.933 1557.33 630.867 1552.54 635.802 1547.74 641.883 1543.54 649.111 1539.92 656.755 1535.89 660.578 1533.32 660.578 1532.21 660.578 1530.4 656.338 1529.5 647.86 1529.5 622.145 1529.5 598.377 1531.79 576.554 1536.38 554.731 1540.97 537.53 1547.01 524.951 1554.52 512.372 1562.02 506.082 1569.67 506.082 1577.45 506.082 1582.32 508.688 1585.76 513.901 1587.77 519.113 1589.79 530.615 1593.16 548.407 1597.89 566.199 1602.61 582.114 1608.03 596.153 1614.15 616.307 1622.77 631.249 1631.73 640.979 1641.04 650.709 1650.36 655.574 1660.78 655.574 1672.32 655.574 1680.24 653.663 1688.2 649.84 1696.19 646.018 1704.18 640.423 1711.52 633.056 1718.19 625.69 1724.86 617.211 1730.35 607.62 1734.66 599.419 1738.13 589.098 1741.4 576.658 1744.46 564.218 1747.52 550.735 1749.91 536.21 1751.65 521.685 1753.39 507.82 1754.26 494.615 1754.26 470.29 1754.26 450.727 1751.96 435.923 1747.38 421.12 1742.79 413.718 1735.84 413.718 1726.53 413.718 1722.36 416.22 1715.86 421.224 1707.03 426.228 1698.21 432.136 1692.26 438.947 1689.21 444.923 1686.84 450.692 1685.49 456.252 1685.14 461.812 1684.79 464.592 1685.45 464.592 1687.12 464.592 1687.54 464.383 1687.96 463.966 1688.37 463.549 1688.79 463.063 1689.14 462.507 1689.41 461.951 1689.69 461.395 1689.97 460.839 1690.25 458.059 1691.36 455.8 1692.23 454.062 1692.85 452.325 1693.48 450.935 1694.11 449.893 1694.73 448.85 1695.36 448.329 1696.23 448.329 1697.34 448.329 1700.26 462.715 1701.72 491.488 1701.72 516.507 1701.72 537.009 1700.81 552.994 1699.01 568.979 1697.2 583.087 1693.93 595.319 1689.21 607.55 1684.48 618.67 1677.95 628.678 1669.61 625.203 1663.21 619.991 1657.45 613.041 1652.3 606.091 1647.16 598.272 1643.02 589.585 1639.9 580.898 1636.77 571.828 1634.44 562.376 1632.91 534.299 1628.74 508.098 1619.64 483.773 1605.6 481.688 1604.49 479.464 1602.12 477.101 1598.51 474.738 1594.9 473.557 1591.42 473.557 1588.09 473.557 1575.85 475.607 1563.59 479.707 1551.29 483.808 1538.98 489.055 1529.36 495.449 1522.41 505.735 1510.87 524.256 1500.8 551.013 1492.18 577.77 1483.56 607.898 1479.25 641.396 1479.25Z" stroke="#92D050" stroke-linejoin="round" stroke-miterlimit="10" fill="#FFFFCC" fill-rule="evenodd"/><text fill="#000000" fill-opacity="0" font-family="Arial,Arial_MSFontService,sans-serif" font-size="345.061" x="413.718" y="1781.18">Suyena</text></g></svg>